<?xml version="1.0" encoding="iso-8859-1"?>
<!-- Uploaded to: SVG Repo, www.svgrepo.com, Generator: SVG Repo Mixer Tools -->
<svg height="800px" width="800px" version="1.1" id="Layer_1" xmlns="http://www.w3.org/2000/svg" xmlns:xlink="http://www.w3.org/1999/xlink" 
	 viewBox="0 0 496.158 496.158" xml:space="preserve">
<path style="fill:#334D5C;" d="M248.082,0.002C111.07,0.002,0,111.062,0,248.085c0,137.001,111.07,248.07,248.082,248.07
	c137.006,0,248.076-111.069,248.076-248.07C496.158,111.062,385.088,0.002,248.082,0.002z"/>
<g>
	<polygon style="fill:#DBBB00;" points="130.14,198.864 112.329,198.236 106.733,181.858 101.138,198.236 83.327,198.864 
		97.68,208.879 92.267,226.38 106.733,215.457 121.199,226.38 115.787,208.879 	"/>
	<polygon style="fill:#DBBB00;" points="112.416,202.888 115.484,191.247 105.788,198.381 95.265,191.88 99.455,203.293 
		89.618,211.305 102.168,210.834 106.348,222.678 110.18,210.583 122.334,210.281 	"/>
	<polygon style="fill:#DBBB00;" points="357.01,69.5 339.199,68.872 333.603,52.495 328.008,68.872 310.197,69.5 324.55,79.515 
		319.138,97.017 333.603,86.093 348.069,97.017 342.657,79.515 	"/>
	<polygon style="fill:#DBBB00;" points="339.286,73.524 342.354,61.883 332.658,69.018 322.135,62.517 326.325,73.929 
		316.488,81.941 329.038,81.471 333.218,93.314 337.05,81.22 349.204,80.917 	"/>
</g>
<path style="fill:#D5D6C9;" d="M248.079,346.078c-134.544,0-215.647,24.703-215.647,24.703
	c42.702,74.882,123.276,125.374,215.65,125.374c92.369,0,172.943-50.491,215.645-125.373
	C463.726,370.781,382.623,346.078,248.079,346.078z"/>
<g style="opacity:0.5;">
	<path style="fill:#BFBFBE;" d="M337.239,391.542c-1.966-2.69-3.418-6.018-4.551-9.686c-3.175-10.284-3.782-23.296-5.729-32.856
		c-23.658-1.784-50.037-2.921-78.88-2.921c-36.426,0-68.925,1.813-96.967,4.453c1.531,10.894,4.542,31.469,7.354,45.771
		c1.364,6.937,2.68,12.398,3.757,14.552c4.227,8.45,39.832,7.242,39.832,7.242s47.676-6.942,56.729-9.656
		c9.054-2.714,60.952,32.285,78.456,22.933C354.741,422.02,348.703,407.23,337.239,391.542z"/>
</g>
<g>
	<polygon style="fill:#DBBB00;" points="429.005,224.007 411.194,223.379 405.599,207.002 400.003,223.379 382.192,224.007 
		396.545,234.022 391.133,251.523 405.599,240.6 420.064,251.523 414.652,234.022 	"/>
	<polygon style="fill:#DBBB00;" points="411.281,228.031 414.35,216.391 404.653,223.525 394.13,217.023 398.32,228.436 
		388.483,236.448 401.033,235.978 405.213,247.821 409.045,235.727 421.199,235.425 	"/>
</g>
<g>
	<path style="fill:#8E8E8E;" d="M224.939,357.915c-5.188-3.831-14.212-0.407-20.161,7.647c-5.946,8.053-10.172,13.322-4.986,17.152
		c5.187,3.83,21.06,0.043,27.009-8.011C232.747,366.651,230.124,361.745,224.939,357.915z"/>
	<path style="fill:#8E8E8E;" d="M291.201,365.563c-5.947-8.054-14.973-11.478-20.16-7.647c-5.185,3.83-7.81,8.736-1.861,16.789
		c5.947,8.054,21.823,11.84,27.007,8.011C301.373,378.884,297.149,373.615,291.201,365.563z"/>
</g>
<path style="fill:#D6E2D3;" d="M289.519,313.188l-4.381-51.498h-74.304l-4.495,52.683c0,0-1.283,51.462,1.382,53.026
	c2.664,1.564,15.53,1.525,19.016-0.38c3.485-1.905,13.694-53.199,13.694-53.199l4.563-23.229c0,0,0.688-6.823,3.206-6.823
	c2.516,0,3.088,6.708,3.088,6.708l4.123,22.659c0,0,9.554,52.013,13.212,53.917c3.657,1.904,18.485,2.044,20.767-0.382
	C291.673,364.244,289.519,313.188,289.519,313.188z"/>
<g>
	<path style="fill:#818281;" d="M309.683,276.674l-0.616,12.176c0,0-0.218,1.788-1.135,2.184c0,0,1.551-0.1,1.82-2.33l0.549-12.304
		L309.683,276.674z"/>
	<path style="fill:#818281;" d="M307.048,274.824l-3.982,11.597c0,0-0.53,1.871-1.599,2.025c0,0,1.59,0.26,2.697-1.72l4.019-11.557
		L307.048,274.824z"/>
</g>
<path style="fill:#A5A5A5;" d="M319.414,281.852c0,0-1.444-6.33-1.771-7.59l-0.38-7.548c0,0-5.897-1.165-12.181-3.254
	c0,0-2.863,4.239-3.61,4.634c-0.746,0.395-2.28,3.445-5.035,6.85l0.006,0.003c-1.585,1.116-3.328,2.62-2.976,3.646
	c0,0,0.658,1.839,3.106,2.157c0,0,0.768,0.235,1.543-0.401l2.353-2.007l1.692-2.581l-2.974,7.247l-1.429,2.526
	c-0.34,0.764,0.099,1.324,0.099,1.324c0.948,1.352,3.573,1.599,3.573,1.599c2.293-0.179,4.682-9.721,4.682-9.721
	s0.412-1.088,0.87-2.434l-0.102,0.958l-3.37,11.491c-0.113,0.725,0.461,1.317,0.461,1.317c1.27,1.208,3.821,1.022,3.821,1.022
	c1.98-0.443,1.75-6.694,1.75-6.694s0.158-4.947,0.501-7.78l-0.139,5.499l-0.176,6.389c0.066,0.865,0.664,1.288,0.664,1.288
	c1.433,1.094,3.696,0.594,3.696,0.594c0.888-0.35,1.163-1.787,1.198-3.261c0.102,0.662,0.798,1.213,0.798,1.213
	c1.539,1.002,3.37,0.377,3.37,0.377C321.301,287.792,319.414,281.852,319.414,281.852z M315.116,284.132l0.003,0.033l0.001,0.026
	C315.119,284.172,315.116,284.15,315.116,284.132z"/>
<path style="fill:#818281;" d="M314.251,276.4l0.916,11.682c0,0-0.096,1.807-0.979,2.243c0,0,1.53-0.162,1.648-2.417L314.251,276.4z
	"/>
<path style="fill:#BDC1BC;" d="M297.943,265.586l1.373,2.403l18.539-1.03l0.515-3.09
	C318.37,263.869,302.922,262.152,297.943,265.586z"/>
<g>
	<path style="fill:#818281;" d="M187.091,288.85l-0.615-12.176l-0.619-0.274l0.551,12.304c0.268,2.23,1.818,2.33,1.818,2.33
		C187.308,290.638,187.091,288.85,187.091,288.85z"/>
	<path style="fill:#818281;" d="M193.094,286.421l-3.983-11.597l-1.134,0.345l4.019,11.557c1.107,1.979,2.696,1.72,2.696,1.72
		C193.624,288.292,193.094,286.421,193.094,286.421z"/>
</g>
<path style="fill:#A5A5A5;" d="M199.715,274.947l0.006-0.003c-2.755-3.405-4.287-6.456-5.035-6.85
	c-0.746-0.395-3.609-4.634-3.609-4.634c-6.283,2.089-12.181,3.254-12.181,3.254l-0.38,7.548c-0.326,1.26-1.771,7.59-1.771,7.59
	s-1.886,5.94-0.042,6.862c0,0,1.829,0.625,3.369-0.377c0,0,0.696-0.551,0.797-1.213c0.036,1.474,0.311,2.911,1.198,3.261
	c0,0,2.265,0.5,3.696-0.594c0,0,0.598-0.423,0.666-1.288l-0.177-6.389l-0.139-5.499c0.343,2.833,0.501,7.78,0.501,7.78
	s-0.23,6.251,1.75,6.694c0,0,2.552,0.186,3.82-1.022c0,0,0.574-0.593,0.462-1.317l-3.37-11.491l-0.102-0.958
	c0.457,1.346,0.871,2.434,0.871,2.434s2.387,9.542,4.68,9.721c0,0,2.625-0.247,3.573-1.599c0,0,0.44-0.56,0.099-1.324l-1.429-2.526
	l-2.972-7.247l1.691,2.581l2.353,2.007c0.776,0.636,1.542,0.401,1.542,0.401c2.448-0.317,3.106-2.157,3.106-2.157
	C203.043,277.566,201.301,276.063,199.715,274.947z M181.038,284.19l0.001-0.026l0.005-0.033
	C181.042,284.15,181.039,284.172,181.038,284.19z"/>
<path style="fill:#818281;" d="M180.991,288.082l0.918-11.682l-1.587,11.508c0.118,2.255,1.65,2.417,1.65,2.417
	C181.088,289.889,180.991,288.082,180.991,288.082z"/>
<path style="fill:#BDC1BC;" d="M177.788,263.869l0.515,3.09l18.539,1.03l1.374-2.403
	C193.236,262.152,177.788,263.869,177.788,263.869z"/>
<path style="fill:#AFB2AD;" d="M280.697,118.212h-65.02c-5.319,0-9.632,3.912-9.632,8.737v58.984c0,4.826,4.313,8.738,9.632,8.738
	h65.02c5.319,0,9.633-3.912,9.633-8.738v-58.984C290.33,122.123,286.017,118.212,280.697,118.212z"/>
<path style="fill:#C0C9BD;" d="M280.697,121.411h-65.02c-5.319,0-9.632,4.313-9.632,9.632v65.02c0,5.319,4.313,9.632,9.632,9.632
	h65.02c5.319,0,9.633-4.313,9.633-9.632v-65.02C290.33,125.724,286.017,121.411,280.697,121.411z"/>
<g>
	<path style="fill:#DFEADC;" d="M297.19,176.456c-1.991-12.726-26.605-19.838-47.432-19.838h-3.143
		c-20.828,0-46.006,7.907-47.432,19.838c-1.075,9.004,0.089,33.277,0.729,44.651c12.997,11.097,29.862,17.799,48.293,17.799
		c18.455,0,35.338-6.72,48.344-17.842C297.32,209.811,298.683,186.015,297.19,176.456z"/>
	<path style="fill:#DFEADC;" d="M301.1,176.456c-1.989-12.726-30.6-19.838-51.428-19.838h-3.143
		c-20.826,0-50.088,7.907-51.515,19.838c-1.075,9.004,15.241,73.86,15.734,85.233c0,0,17.529,5.667,35.538,5.667
		c18.033,0,39.218-5.709,39.218-5.709C286.1,250.395,302.594,186.015,301.1,176.456z"/>
</g>
<path style="fill:#D6E2D3;" d="M248.187,110.831c-17.873,0-32.361,11.863-32.361,28.361c0,26.316,14.488,33.784,32.361,33.784
	s32.361-7.468,32.361-33.784C280.549,122.694,266.06,110.831,248.187,110.831z"/>
<path style="fill:#E5EAE4;" d="M248.187,110.831c-17.873,0-32.361,11.863-32.361,28.361c0,12.401,3.217,20.617,8.49,25.838
	l47.77-45.293C266.168,114.159,257.652,110.831,248.187,110.831z"/>
<path style="fill:#9B9A8C;" d="M248.187,121.411c-14.097,0-25.525,8.325-25.525,21.338c0,22.759,11.429,28.184,25.525,28.184
	c14.096,0,25.523-5.424,25.523-28.184C273.711,129.736,262.284,121.411,248.187,121.411z"/>
<path style="fill:#8E8D85;" d="M264.698,126.076l-36.819,36.819c4.664,6.163,12.024,8.037,20.309,8.037
	c14.097,0,25.523-5.424,25.523-28.184C273.711,135.55,270.211,129.79,264.698,126.076z"/>
<g>
	<path style="fill:#B8BCB7;" d="M223.023,192.745l-12.359,33.416l-4.119,12.589c0.295,0.119,4.348-8.239,6.409-11.902
		C216.957,217.235,226.226,196.179,223.023,192.745z"/>
	<path style="fill:#B8BCB7;" d="M285.713,226.161l-12.36-33.416c-3.203,3.434,6.066,24.49,10.07,34.103
		c2.063,3.663,6.114,12.021,6.41,11.902L285.713,226.161z"/>
</g>
<g>
	<path style="fill:#DFEADC;" d="M318.37,244.186c-4.119-43.945-17.872-70.094-17.872-70.094l-26.206,20.713
		c0,0,2.478,7.658,8.239,24.948c2.52,7.554,10.091,25.005,11.921,30.27c0.844,2.422,3.491,15.563,3.491,15.563
		s6.748-1.728,12.838-1.259c5.95,0.458,7.57,0.171,7.57,0.171C319.725,255.115,318.37,244.186,318.37,244.186z"/>
	<path style="fill:#DFEADC;" d="M195.939,174.092c0,0-14.089,26.378-18.208,70.323c0,0-1.373,10.299,0,19.684
		c0,0,1.487-0.114,7.438-0.572c6.09-0.469,13.046,2.06,13.046,2.06s2.591-12.913,3.433-15.335
		c1.832-5.264,9.741-22.944,12.259-30.498c5.764-17.29,8.24-24.948,8.24-24.948L195.939,174.092z"/>
</g>
</svg>